<svg xmlns="http://www.w3.org/2000/svg" width="77" height="77"><defs><filter id="a" x="227" y="3766" width="77" height="77" filterUnits="userSpaceOnUse"><feOffset result="offset" dx="1.364" dy="1.463" in="SourceAlpha"/><feGaussianBlur result="blur" stdDeviation="3.162"/><feFlood result="flood" flood-opacity=".21"/><feComposite result="composite" operator="in" in2="blur"/><feBlend result="blend" in="SourceGraphic"/></filter></defs><path data-name="Фигура 36" d="M289.8 3814.29a36.54 36.54 0 01-11.614-1.93 3.963 3.963 0 00-3.211.64l-7.1 7.1a50.3 50.3 0 01-21.275-21.28l7.1-7.1a2.544 2.544 0 00.644-3.2 43.155 43.155 0 01-1.623-11.29 3.035 3.035 0 00-3.207-3.22h-11.283a3.04 3.04 0 00-3.227 3.22 54.735 54.735 0 0054.8 54.78 3.038 3.038 0 003.207-3.21v-11.28a3.043 3.043 0 00-3.207-3.23zm-3.227-11.28h6.434a28.874 28.874 0 00-29-29v6.45a22.41 22.41 0 0122.568 22.55zm-12.887 0h6.433a15.96 15.96 0 00-16.114-16.12v6.46a9.5 9.5 0 019.681 9.66zm0 0" transform="translate(-227 -3766)" fill-rule="evenodd" filter="url(#a)"/></svg>