<svg xmlns="http://www.w3.org/2000/svg" width="50" height="48"><path data-name="Фигура 32" d="M36.727 11.576H4.939A4.932 4.932 0 000 16.487v17.5a4.932 4.932 0 004.939 4.911H10v8.278a.832.832 0 00.528.771.879.879 0 00.3.052.833.833 0 00.619-.27l8.085-8.831h17.192a4.932 4.932 0 004.94-4.911v-17.5a4.932 4.932 0 00-4.94-4.911zM10 28.96a3.31 3.31 0 113.332-3.31A3.328 3.328 0 0110 28.96zm10.831 0a3.31 3.31 0 113.332-3.31 3.323 3.323 0 01-3.332 3.31zm10.831 0A3.31 3.31 0 1135 25.65a3.326 3.326 0 01-3.338 3.31zm0 0l13.4-28.972H13.273a4.931 4.931 0 00-4.94 4.906v5.029h28.394a6.593 6.593 0 016.608 6.564V27.3h1.725A4.929 4.929 0 0050 22.4V4.9a4.931 4.931 0 00-4.94-4.906zm0 0" fill-rule="evenodd"/></svg>