<svg xmlns="http://www.w3.org/2000/svg" width="64" height="43"><path data-name="Фигура 33" d="M45.125 7.816h7.5v15.636h-7.5V7.816zm11.25 0H64v15.636h-7.625V7.816zm-15-3.909h11.25V0H0v23.453h41.375V3.907zM13.25 17.589H9.5V5.862h3.75v11.727zm9.375 0h-3.75V5.862h3.75v11.727zm9.375 0h-3.75V5.862H32v11.727zm0 0l-13.125 21.5a3.753 3.753 0 11-3.75-3.909 3.833 3.833 0 013.75 3.909zm0 0h11.25a3.753 3.753 0 11-3.75-3.909 3.833 3.833 0 013.75 3.909zm0 0h24.375a3.753 3.753 0 11-3.75-3.909 3.833 3.833 0 013.75 3.909zm0 0h-50.75 3.875a7.672 7.672 0 017.5-7.819 7.336 7.336 0 015.625 2.7 7.336 7.336 0 015.625-2.7 7.672 7.672 0 017.5 7.819h9.375a7.507 7.507 0 1115 0H64v9.772H3.75v11.728zm0 0" fill-rule="evenodd"/></svg>