<svg xmlns="http://www.w3.org/2000/svg" width="58" height="58"><path data-name="Фигура 31" d="M6.425 35.361a23.851 23.851 0 002.13 5.061l-2.571 3.244a2.664 2.664 0 00.2 3.529l4.43 4.43a2.651 2.651 0 003.528.2l3.222-2.551a23.4 23.4 0 005.259 2.226l.483 4.148A2.657 2.657 0 0025.74 58h6.268a2.655 2.655 0 002.634-2.351l.462-4a23.676 23.676 0 005.638-2.278l3.117 2.467a2.663 2.663 0 003.528-.2l4.43-4.431a2.652 2.652 0 00.2-3.528l-2.425-3.076a23.162 23.162 0 002.32-5.544l3.737-.431A2.655 2.655 0 0058 31.991v-6.269a2.657 2.657 0 00-2.352-2.635l-3.684-.43a23.3 23.3 0 00-2.226-5.482l2.268-2.866a2.663 2.663 0 00-.2-3.527l-4.419-4.421a2.651 2.651 0 00-3.528-.2l-2.782 2.2a23.329 23.329 0 00-5.763-2.415l-.419-3.6A2.658 2.658 0 0032.259 0h-6.267a2.658 2.658 0 00-2.635 2.352l-.419 3.6a23.267 23.267 0 00-5.911 2.5l-2.886-2.289a2.663 2.663 0 00-3.528.2l-4.43 4.431a2.652 2.652 0 00-.2 3.528l2.414 3.055a22.838 22.838 0 00-2.184 5.533l-3.862.442A2.656 2.656 0 000 25.985v6.268a2.656 2.656 0 002.352 2.636zM29.131 18.4A10.364 10.364 0 1118.77 28.763 10.377 10.377 0 0129.131 18.4zm0 0" fill-rule="evenodd"/></svg>