<svg xmlns="http://www.w3.org/2000/svg" width="21" height="16"><path data-name="Фигура 49" d="M20.98 1.609c0-.026.02-.051.02-.076l-6.41 6.6 6.4 6.392a.654.654 0 00-.01-.139V1.609zm0 0l-7.37 7.544L11 11.844a.689.689 0 01-.48.2.638.638 0 01-.46-.2l-2.61-2.6L1 15.893a1.448 1.448 0 00.51.107h18.03a1.409 1.409 0 00.72-.212zm0 0l-3.1 1.157 9.78-10.075a1.379 1.379 0 00-.75-.236H8.88a1.449 1.449 0 00-.95.377zM0 1.854V14.39a1.874 1.874 0 00.06.415l6.37-6.552zm0 0" fill="#054982" fill-rule="evenodd"/></svg>