<svg xmlns="http://www.w3.org/2000/svg" xmlns:xlink="http://www.w3.org/1999/xlink" width="77" height="77" viewBox="0 0 77 77">
  <metadata><?xpacket begin="﻿" id="W5M0MpCehiHzreSzNTczkc9d"?>
<x:xmpmeta xmlns:x="adobe:ns:meta/" x:xmptk="Adobe XMP Core 5.6-c142 79.160924, 2017/07/13-01:06:39        ">
   <rdf:RDF xmlns:rdf="http://www.w3.org/1999/02/22-rdf-syntax-ns#">
      <rdf:Description rdf:about=""/>
   </rdf:RDF>
</x:xmpmeta>
                                                                                                    
                                                                                                    
                                                                                                    
                                                                                                    
                                                                                                    
                                                                                                    
                                                                                                    
                                                                                                    
                                                                                                    
                                                                                                    
                                                                                                    
                                                                                                    
                                                                                                    
                                                                                                    
                                                                                                    
                                                                                                    
                                                                                                    
                                                                                                    
                                                                                                    
                                                                                                    
                           
<?xpacket end="w"?></metadata>
<defs>
    <style>
      .cls-1 {
        fill-rule: evenodd;
        filter: url(#filter);
      }
    </style>
    <filter id="filter" x="227" y="3766" width="77" height="77" filterUnits="userSpaceOnUse">
      <feOffset result="offset" dx="1.364" dy="1.463" in="SourceAlpha"/>
      <feGaussianBlur result="blur" stdDeviation="3.162"/>
      <feFlood result="flood" flood-opacity="0.21"/>
      <feComposite result="composite" operator="in" in2="blur"/>
      <feBlend result="blend" in="SourceGraphic"/>
    </filter>
  </defs>
  <path id="Фигура_36" data-name="Фигура 36" class="cls-1" d="M289.8,3814.29a36.54,36.54,0,0,1-11.614-1.93,3.963,3.963,0,0,0-3.211.64l-7.1,7.1a50.3,50.3,0,0,1-21.275-21.28l7.1-7.1a2.544,2.544,0,0,0,.644-3.2,43.155,43.155,0,0,1-1.623-11.29,3.035,3.035,0,0,0-3.207-3.22H238.231a3.04,3.04,0,0,0-3.227,3.22,54.735,54.735,0,0,0,54.8,54.78,3.038,3.038,0,0,0,3.207-3.21v-11.28a3.043,3.043,0,0,0-3.207-3.23h0Zm-3.227-11.28h6.434a28.874,28.874,0,0,0-29-29v6.45a22.41,22.41,0,0,1,22.568,22.55h0Zm-12.887,0h6.433a15.96,15.96,0,0,0-16.114-16.12v6.46a9.5,9.5,0,0,1,9.681,9.66h0Zm0,0" transform="translate(-227 -3766)"/>
</svg>
