<svg xmlns="http://www.w3.org/2000/svg" width="64" height="43" viewBox="0 0 64 43">
  <metadata><?xpacket begin="﻿" id="W5M0MpCehiHzreSzNTczkc9d"?>
<x:xmpmeta xmlns:x="adobe:ns:meta/" x:xmptk="Adobe XMP Core 5.6-c142 79.160924, 2017/07/13-01:06:39        ">
   <rdf:RDF xmlns:rdf="http://www.w3.org/1999/02/22-rdf-syntax-ns#">
      <rdf:Description rdf:about=""/>
   </rdf:RDF>
</x:xmpmeta>
                                                                                                    
                                                                                                    
                                                                                                    
                                                                                                    
                                                                                                    
                                                                                                    
                                                                                                    
                                                                                                    
                                                                                                    
                                                                                                    
                                                                                                    
                                                                                                    
                                                                                                    
                                                                                                    
                                                                                                    
                                                                                                    
                                                                                                    
                                                                                                    
                                                                                                    
                                                                                                    
                           
<?xpacket end="w"?></metadata>
<defs>
    <style>
      .cls-1 {
        fill-rule: evenodd;
      }
    </style>
  </defs>
  <path id="Фигура_33" data-name="Фигура 33" class="cls-1" d="M753.125,533.816h7.5v15.636h-7.5V533.816Zm11.25,0H772v15.636h-7.625V533.816Zm-15-3.909h11.25V526H708v23.453h41.375V529.907ZM721.25,543.589H717.5V531.862h3.75v11.727Zm9.375,0h-3.75V531.862h3.75v11.727Zm9.375,0h-3.75V531.862H740v11.727Zm0,0-13.125,21.5a3.753,3.753,0,1,1-3.75-3.909,3.833,3.833,0,0,1,3.75,3.909h0Zm0,0,11.25,0a3.753,3.753,0,1,1-3.75-3.909,3.833,3.833,0,0,1,3.75,3.909h0Zm0,0,24.375,0a3.753,3.753,0,1,1-3.75-3.909,3.833,3.833,0,0,1,3.75,3.909h0Zm0,0-50.75,0h3.875a7.672,7.672,0,0,1,7.5-7.819,7.336,7.336,0,0,1,5.625,2.7,7.336,7.336,0,0,1,5.625-2.7,7.672,7.672,0,0,1,7.5,7.819h9.375a7.507,7.507,0,1,1,15,0H772V553.361H711.75v11.728Zm0,0" transform="translate(-708 -526)"/>
</svg>
