<svg xmlns="http://www.w3.org/2000/svg" width="50" height="48" viewBox="0 0 50 48">
  <metadata><?xpacket begin="﻿" id="W5M0MpCehiHzreSzNTczkc9d"?>
<x:xmpmeta xmlns:x="adobe:ns:meta/" x:xmptk="Adobe XMP Core 5.6-c142 79.160924, 2017/07/13-01:06:39        ">
   <rdf:RDF xmlns:rdf="http://www.w3.org/1999/02/22-rdf-syntax-ns#">
      <rdf:Description rdf:about=""/>
   </rdf:RDF>
</x:xmpmeta>
                                                                                                    
                                                                                                    
                                                                                                    
                                                                                                    
                                                                                                    
                                                                                                    
                                                                                                    
                                                                                                    
                                                                                                    
                                                                                                    
                                                                                                    
                                                                                                    
                                                                                                    
                                                                                                    
                                                                                                    
                                                                                                    
                                                                                                    
                                                                                                    
                                                                                                    
                                                                                                    
                           
<?xpacket end="w"?></metadata>
<defs>
    <style>
      .cls-1 {
        fill-rule: evenodd;
      }
    </style>
  </defs>
  <path id="Фигура_32" data-name="Фигура 32" class="cls-1" d="M519.727,535.576H487.939A4.932,4.932,0,0,0,483,540.487v17.5a4.932,4.932,0,0,0,4.939,4.911H493v8.278a0.832,0.832,0,0,0,.528.771,0.879,0.879,0,0,0,.3.052,0.833,0.833,0,0,0,.619-0.27l8.085-8.831h17.192a4.932,4.932,0,0,0,4.94-4.911v-17.5a4.932,4.932,0,0,0-4.94-4.911h0ZM493,552.96a3.31,3.31,0,1,1,3.332-3.31A3.328,3.328,0,0,1,493,552.96h0Zm10.831,0a3.31,3.31,0,1,1,3.332-3.31,3.323,3.323,0,0,1-3.332,3.31h0Zm10.831,0A3.31,3.31,0,1,1,518,549.65a3.326,3.326,0,0,1-3.338,3.31h0Zm0,0,13.4-28.972H496.273a4.931,4.931,0,0,0-4.94,4.906v5.029h28.394a6.593,6.593,0,0,1,6.608,6.564V551.3h1.725A4.929,4.929,0,0,0,533,546.4v-17.5a4.931,4.931,0,0,0-4.94-4.906h0Zm0,0" transform="translate(-483 -524)"/>
</svg>
