<svg xmlns="http://www.w3.org/2000/svg" width="58" height="58" viewBox="0 0 58 58">
  <metadata><?xpacket begin="﻿" id="W5M0MpCehiHzreSzNTczkc9d"?>
<x:xmpmeta xmlns:x="adobe:ns:meta/" x:xmptk="Adobe XMP Core 5.6-c142 79.160924, 2017/07/13-01:06:39        ">
   <rdf:RDF xmlns:rdf="http://www.w3.org/1999/02/22-rdf-syntax-ns#">
      <rdf:Description rdf:about=""/>
   </rdf:RDF>
</x:xmpmeta>
                                                                                                    
                                                                                                    
                                                                                                    
                                                                                                    
                                                                                                    
                                                                                                    
                                                                                                    
                                                                                                    
                                                                                                    
                                                                                                    
                                                                                                    
                                                                                                    
                                                                                                    
                                                                                                    
                                                                                                    
                                                                                                    
                                                                                                    
                                                                                                    
                                                                                                    
                                                                                                    
                           
<?xpacket end="w"?></metadata>
<defs>
    <style>
      .cls-1 {
        fill-rule: evenodd;
      }
    </style>
  </defs>
  <path id="Фигура_31" data-name="Фигура 31" class="cls-1" d="M253.425,554.361a23.851,23.851,0,0,0,2.13,5.061l-2.571,3.244a2.664,2.664,0,0,0,.2,3.529l4.43,4.43a2.651,2.651,0,0,0,3.528.2l3.222-2.551a23.4,23.4,0,0,0,5.259,2.226l0.483,4.148A2.657,2.657,0,0,0,272.74,577h6.268a2.655,2.655,0,0,0,2.634-2.351l0.462-4a23.676,23.676,0,0,0,5.638-2.278l3.117,2.467a2.663,2.663,0,0,0,3.528-.2l4.43-4.431a2.652,2.652,0,0,0,.2-3.528l-2.425-3.076a23.162,23.162,0,0,0,2.32-5.544l3.737-.431A2.655,2.655,0,0,0,305,550.991v-6.269a2.657,2.657,0,0,0-2.352-2.635l-3.684-.43a23.3,23.3,0,0,0-2.226-5.482l2.268-2.866a2.663,2.663,0,0,0-.2-3.527l-4.419-4.421a2.651,2.651,0,0,0-3.528-.2l-2.782,2.2a23.329,23.329,0,0,0-5.763-2.415l-0.419-3.6A2.658,2.658,0,0,0,279.259,519h-6.267a2.658,2.658,0,0,0-2.635,2.352l-0.419,3.6a23.267,23.267,0,0,0-5.911,2.5l-2.886-2.289a2.663,2.663,0,0,0-3.528.2l-4.43,4.431a2.652,2.652,0,0,0-.2,3.528l2.414,3.055a22.838,22.838,0,0,0-2.184,5.533l-3.862.442A2.656,2.656,0,0,0,247,544.985v6.268a2.656,2.656,0,0,0,2.352,2.636ZM276.131,537.4a10.364,10.364,0,1,1-10.361,10.363A10.377,10.377,0,0,1,276.131,537.4h0Zm0,0" transform="translate(-247 -519)"/>
</svg>
