<svg xmlns="http://www.w3.org/2000/svg" width="21" height="16" viewBox="0 0 21 16"><g><g opacity="-1"><path fill="#054982" d="M20.983 14.39c0 .047.012.093.008.139l-6.4-6.392 6.408-6.604c0 .026-.016.05-.016.076zm-.724 1.398a1.414 1.414 0 0 1-.72.212H1.505c-.176 0-.344-.047-.5-.107l6.442-6.64 2.608 2.6c.132.13.3.196.467.196a.662.662 0 0 0 .474-.205l2.617-2.691zM.559.377c.257-.228.587-.378.946-.378h18.034c.276 0 .534.095.755.236l-9.78 10.075zm5.868 7.876L.064 14.805A1.678 1.678 0 0 1 0 14.39V1.854z"/></g></g></svg>