<svg xmlns="http://www.w3.org/2000/svg" width="21" height="16" viewBox="0 0 21 16">
  <metadata><?xpacket begin="﻿" id="W5M0MpCehiHzreSzNTczkc9d"?>
<x:xmpmeta xmlns:x="adobe:ns:meta/" x:xmptk="Adobe XMP Core 5.6-c142 79.160924, 2017/07/13-01:06:39        ">
   <rdf:RDF xmlns:rdf="http://www.w3.org/1999/02/22-rdf-syntax-ns#">
      <rdf:Description rdf:about=""/>
   </rdf:RDF>
</x:xmpmeta>
                                                                                                    
                                                                                                    
                                                                                                    
                                                                                                    
                                                                                                    
                                                                                                    
                                                                                                    
                                                                                                    
                                                                                                    
                                                                                                    
                                                                                                    
                                                                                                    
                                                                                                    
                                                                                                    
                                                                                                    
                                                                                                    
                                                                                                    
                                                                                                    
                                                                                                    
                                                                                                    
                           
<?xpacket end="w"?></metadata>
<defs>
    <style>
      .cls-1 {
        fill: #054982;
        fill-rule: evenodd;
      }
    </style>
  </defs>
  <path id="Фигура_49" data-name="Фигура 49" class="cls-1" d="M1542.98,38.609c0-.026.02-0.051,0.02-0.076l-6.41,6.6,6.4,6.392a0.654,0.654,0,0,0-.01-0.139V38.609Zm0,0-7.37,7.544L1533,48.844a0.689,0.689,0,0,1-.48.2,0.638,0.638,0,0,1-.46-0.2l-2.61-2.6L1523,52.893a1.448,1.448,0,0,0,.51.107h18.03a1.409,1.409,0,0,0,.72-0.212Zm0,0-3.1,1.157,9.78-10.075a1.379,1.379,0,0,0-.75-0.236h-18.03a1.449,1.449,0,0,0-.95.377Zm0,0M1522,38.854V51.39a1.874,1.874,0,0,0,.06.415l6.37-6.552Zm0,0" transform="translate(-1522 -37)"/>
</svg>
